<svg width="34" height="43" viewBox="0 0 34 43" fill="none" xmlns="http://www.w3.org/2000/svg">
<circle cx="16.8978" cy="22.0755" r="16.8978" fill="#FFE366"/>
<path d="M8.86464 14.6876H22.0585L22.5623 17.1344H16.9729V31H13.8303V17.1344H8.86464V14.6876Z" fill="white"/>
<path d="M19.8294 14.6827C21.4131 14.6827 22.7009 15.0346 23.6928 15.7385C24.6846 16.4264 25.1805 17.5942 25.1805 19.2419C25.1805 19.8498 25.0365 20.4018 24.7486 20.8977C24.4766 21.3776 24.1167 21.7935 23.6688 22.1455C24.4046 22.5294 25.0045 23.0493 25.4685 23.7052C25.9484 24.3611 26.1884 25.193 26.1884 26.2008C26.1884 27.7045 25.6604 28.8804 24.6046 29.7282C23.5648 30.5761 22.173 31 20.4293 31H13.7344V14.6827H19.8294ZM19.3735 17.2743H16.8299V21.3296H19.1335C19.9974 21.3296 20.6693 21.1696 21.1492 20.8497C21.6451 20.5137 21.8931 19.9938 21.8931 19.2899C21.8931 18.5221 21.6691 17.9942 21.2212 17.7062C20.7733 17.4182 20.1574 17.2743 19.3735 17.2743ZM20.4053 23.8492H16.8299V28.4324H20.1893C21.0212 28.4324 21.6851 28.2405 22.181 27.8565C22.6929 27.4726 22.9489 26.9287 22.9489 26.2248C22.9489 25.4569 22.7169 24.873 22.253 24.4731C21.7891 24.0571 21.1732 23.8492 20.4053 23.8492Z" fill="white"/>
<circle cx="16.8975" cy="22.0958" r="16.012" stroke="white" stroke-width="0.136273" stroke-dasharray="0.27 0.27"/>
<path d="M19.4991 14.4995H21.9991L22.4991 14.9995C21.5002 14.9995 23 14.9995 18.4991 14.4995C13.9981 13.9996 19.4991 14.4995 19.4991 14.4995Z" fill="#FFE366"/>
</svg>
