<svg width="58" height="64" viewBox="0 0 58 64" fill="none" xmlns="http://www.w3.org/2000/svg">
<g clip-path="url(#clip0_809_8630)">
<path d="M57.1076 0H0V64H57.1076V0Z" fill="#AD2323"/>
<path d="M14.8557 51.8226V53.8843H16.7241V51.8226H14.8557ZM16.7241 48.0644V46.3893H14.8557V48.0644H16.7241ZM19.5374 57.6426H10.1525V42.6095H19.5374C20.6541 42.6095 21.4273 43.3827 21.4273 44.4779V47.9355C21.4273 49.0308 20.5253 49.7395 19.4944 49.7395V50.1475C20.5253 50.1475 21.4273 50.8562 21.4273 51.973V55.7742C21.4273 56.8695 20.6541 57.6426 19.5374 57.6426ZM29.4963 42.6095H34.1995V57.6426H24.8146C23.6978 57.6426 22.9247 56.8695 22.9247 55.7742V42.6095H27.6279V53.8843H29.4963V42.6095ZM38.9557 53.5407L35.2833 44.4779V42.6095H39.9865L41.1247 48.4509H41.4684L42.6281 42.6095H47.3098V44.4779L43.6374 53.5407V57.6426H38.9557V53.5407Z" fill="white"/>
<path d="M13.4514 9.7799H10.6381V6.00016H21.1612V7.86855L20.4096 9.7799H18.1546V21.0332H13.4514V9.7799ZM28.8016 9.7799H26.9332V17.2749H28.8016V9.7799ZM31.6149 21.0332H24.1198C23.0031 21.0332 22.23 20.2601 22.23 19.1648V7.86855C22.23 6.77329 23.0031 6.00016 24.1198 6.00016H31.6149C32.7316 6.00016 33.5048 6.77329 33.5048 7.86855V19.1648C33.5048 20.2601 32.7316 21.0332 31.6149 21.0332ZM39.9361 9.7799V12.5932H41.8045V9.7799H39.9361ZM44.6178 16.3515H39.9361V21.0332H35.2329V6.00016H44.6178C45.7345 6.00016 46.5077 6.77329 46.5077 7.86855V14.4616C46.5077 15.5569 45.7345 16.3515 44.6178 16.3515Z" fill="white"/>
<path d="M32.4633 31.3973H32.8393L32.2335 26.4464V24.6289H36.4533V39.252H31.6068L29.4551 32.5045H29.1L29.6849 37.4345V39.252H25.486V24.6289H30.3325L32.4633 31.3973Z" fill="white"/>
<path d="M18.5389 24.7468H22.6308V28.3818H18.5389V24.7468Z" fill="white"/>
</g>
<defs>
<clipPath id="clip0_809_8630">
<rect width="57.1076" height="64" fill="white"/>
</clipPath>
</defs>
</svg>
